<?xml version="1.0" standalone="no"?>
<!DOCTYPE svg PUBLIC "-//W3C//DTD SVG 20010904//EN"
 "http://www.w3.org/TR/2001/REC-SVG-20010904/DTD/svg10.dtd">
<svg version="1.0" xmlns="http://www.w3.org/2000/svg"
 width="512.000000pt" height="512.000000pt" viewBox="0 0 512.000000 512.000000"
 preserveAspectRatio="xMidYMid meet">

<g transform="translate(0.000000,512.000000) scale(0.100000,-0.100000)"
fill="#000000" stroke="none">
<path d="M560 4947 c-49 -16 -133 -102 -148 -153 -18 -60 -18 -4408 0 -4468
16 -55 99 -138 154 -154 32 -9 491 -12 1996 -12 2205 0 2013 -7 2091 80 24 26
49 66 55 88 17 57 17 4407 0 4464 -6 22 -31 62 -55 88 -78 87 115 80 -2097 79
-1399 -1 -1971 -4 -1996 -12z m3975 -172 c24 -23 25 -29 25 -160 l0 -135
-2000 0 -2000 0 0 135 c0 131 1 137 25 160 l24 25 1951 0 1951 0 24 -25z m25
-2430 l0 -1976 -25 -24 -24 -25 -1951 0 -1951 0 -24 25 -25 24 0 1976 0 1975
2000 0 2000 0 0 -1975z"/>
<path d="M745 4695 c-50 -49 -15 -135 55 -135 41 0 80 39 80 80 0 41 -39 80
-80 80 -19 0 -40 -9 -55 -25z"/>
<path d="M985 4695 c-50 -49 -15 -135 55 -135 41 0 80 39 80 80 0 41 -39 80
-80 80 -19 0 -40 -9 -55 -25z"/>
<path d="M1225 4695 c-50 -49 -15 -135 55 -135 41 0 80 39 80 80 0 41 -39 80
-80 80 -19 0 -40 -9 -55 -25z"/>
<path d="M905 3975 l-25 -24 0 -951 0 -951 25 -24 24 -25 1631 0 1631 0 24 25
25 24 0 951 0 951 -25 24 -24 25 -1631 0 -1631 0 -24 -25z m3175 -975 l0 -840
-209 0 c-191 0 -210 2 -215 18 -2 9 -37 136 -77 282 -44 163 -84 288 -103 325
-62 119 -191 216 -324 244 -29 6 -103 11 -165 11 l-112 0 3 152 c4 150 4 153
38 220 61 122 55 209 -20 284 -57 58 -98 67 -276 62 -143 -3 -146 -4 -208 -37
-70 -38 -100 -69 -140 -145 l-27 -51 0 -242 0 -243 -112 0 c-62 0 -136 -5
-165 -11 -133 -28 -262 -125 -324 -244 -19 -37 -59 -162 -103 -325 -40 -146
-75 -273 -77 -282 -5 -16 -24 -18 -215 -18 l-209 0 0 840 0 840 1520 0 1520 0
0 -840z m-1296 584 c22 -21 20 -36 -9 -94 l-25 -50 -149 0 c-135 0 -151 -2
-175 -21 l-26 -20 0 35 c0 67 37 126 95 152 46 20 269 19 289 -2z m-66 -413
c-2 -92 -6 -114 -24 -137 -39 -52 -71 -69 -133 -69 -48 0 -64 5 -95 29 -43 33
-66 78 -66 133 0 32 8 46 57 95 l57 58 104 0 104 0 -4 -109z m-478 -329 c0
-162 146 -296 305 -279 137 14 240 120 253 260 l5 59 166 -4 c144 -3 172 -6
212 -24 63 -29 126 -88 154 -143 22 -44 75 -223 75 -254 0 -13 -36 -30 -197
-94 -10 -4 -13 19 -13 96 l0 101 -80 0 -80 0 0 -200 0 -200 -461 0 c-365 0
-460 3 -456 13 3 6 28 70 56 141 29 71 48 132 44 137 -9 8 -135 60 -138 56 -1
-1 -15 -35 -30 -75 -16 -40 -32 -75 -37 -78 -9 -6 -287 83 -302 97 -12 10 39
199 69 260 23 45 83 106 127 130 51 28 108 38 216 38 l112 1 0 -38z m203 -19
c22 -11 57 -17 109 -17 48 -1 78 -5 78 -12 0 -5 -14 -23 -31 -40 -25 -24 -39
-29 -79 -29 -42 0 -54 5 -79 30 -27 28 -52 85 -37 85 4 0 21 -8 39 -17z m-628
-579 c77 -26 141 -48 143 -49 1 -1 0 -10 -4 -19 -5 -14 -27 -16 -165 -16 -109
0 -159 3 -159 11 0 21 31 119 38 119 4 0 70 -21 147 -46z m1659 -8 c9 -30 16
-59 16 -65 0 -7 -47 -11 -145 -11 -114 0 -145 3 -145 13 0 10 193 97 257 116
1 1 9 -23 17 -53z"/>
<path d="M1047 1826 c-129 -48 -195 -185 -152 -317 16 -48 37 -74 184 -221
150 -152 169 -168 200 -168 31 0 50 16 193 157 100 100 166 174 180 202 86
178 -53 378 -249 358 -30 -3 -69 -15 -88 -25 l-33 -20 -43 21 c-53 26 -141 32
-192 13z m158 -186 c31 -27 56 -40 75 -40 19 0 44 13 75 40 58 50 94 53 136
11 20 -21 29 -39 29 -62 0 -28 -16 -49 -120 -153 l-120 -121 -120 121 c-104
104 -120 125 -120 153 0 23 9 41 29 62 42 42 78 39 136 -11z"/>
<path d="M1785 1415 c-50 -49 -15 -135 55 -135 19 0 40 9 55 25 16 15 25 36
25 55 0 19 -9 40 -25 55 -15 16 -36 25 -55 25 -19 0 -40 -9 -55 -25z"/>
<path d="M2025 1415 c-50 -49 -15 -135 55 -135 19 0 40 9 55 25 16 15 25 36
25 55 0 19 -9 40 -25 55 -15 16 -36 25 -55 25 -19 0 -40 -9 -55 -25z"/>
<path d="M2265 1415 c-50 -49 -15 -135 55 -135 19 0 40 9 55 25 16 15 25 36
25 55 0 19 -9 40 -25 55 -15 16 -36 25 -55 25 -19 0 -40 -9 -55 -25z"/>
<path d="M1200 947 c-49 -16 -133 -102 -148 -153 -28 -94 -8 -169 63 -239 101
-102 229 -102 330 0 98 97 101 222 8 325 -65 72 -158 97 -253 67z m135 -172
c50 -49 15 -135 -55 -135 -19 0 -40 9 -55 25 -16 15 -25 36 -25 55 0 19 9 40
25 55 15 16 36 25 55 25 19 0 40 -9 55 -25z"/>
<path d="M1760 720 l0 -80 80 0 80 0 0 80 0 80 -80 0 -80 0 0 -80z"/>
<path d="M2080 720 l0 -80 400 0 400 0 0 80 0 80 -400 0 -400 0 0 -80z"/>
</g>
</svg>
