<svg width="59" height="59" viewBox="0 0 59 59" fill="none" xmlns="http://www.w3.org/2000/svg">
<g clip-path="url(#clip0_611_3)">
<path d="M0.00244993 29.3904C0.00244993 22.8877 0.00512591 16.3877 0.00244993 9.88497C-0.00022605 4.11694 4.01107 0.0266982 9.78851 0.0160117C22.9918 -0.00803283 36.1951 -0.00268959 49.3984 0.0160117C54.8681 0.0240266 58.9382 4.11962 58.9436 9.55101C58.9516 18.5891 58.9543 27.6298 58.9543 36.6679C58.9543 37.0687 59.0854 37.5736 58.8954 37.8488C58.5074 38.4072 57.9802 39.1686 57.4397 39.2327C56.8884 39.2968 56.1311 38.7277 55.6923 38.2335C55.4033 37.9076 55.4702 37.221 55.4702 36.6973C55.4595 27.8356 55.3604 18.9711 55.513 10.1121C55.5852 5.94433 52.4222 3.4437 48.8498 3.46774C36.0051 3.5559 23.1604 3.55323 10.3157 3.45973C5.83341 3.42767 3.39024 6.62826 3.43573 10.3311C3.59094 23.1976 3.49193 36.0695 3.49728 48.9387C3.49728 53.0717 5.8896 55.4868 10.0481 55.5028C17.0511 55.5269 24.0515 55.5055 31.0545 55.5028C33.016 55.5028 34.9802 55.5028 36.9417 55.4975C38.7159 55.4921 39.5588 56.0639 39.5293 57.2634C39.4999 58.4015 38.6543 58.9893 36.9979 58.9893C28.6113 58.9946 20.2275 59.0133 11.841 58.9706C10.1631 58.9626 8.42376 58.9385 6.81817 58.5191C2.66773 57.4371 0.0185058 53.8331 0.00780189 49.5638C-0.00825399 42.8394 0.00244993 36.1149 0.00244993 29.3904V29.3904Z" fill="#3992EE"/>
<path d="M39.3663 16.9247C40.8836 21.5733 42.326 25.9868 43.7978 30.4992C39.8159 32.4495 39.7784 35.992 39.9925 39.7911C38.8766 39.7911 37.8705 39.8124 36.8643 39.7857C34.9831 39.7403 33.4016 40.4029 32.0127 41.6559C31.6836 41.9524 31.1859 42.2303 30.7631 42.2303C23.5379 42.2596 16.3101 42.2436 9.08495 42.2303C8.96721 42.2303 8.84947 42.1688 8.61933 42.1074C13.3478 37.5523 18.0147 33.0586 22.711 28.5329C23.6235 30.0584 24.7715 31.9793 26.0239 34.0765C30.4714 28.3539 34.8279 22.7542 39.361 16.9194L39.3663 16.9247Z" fill="#3992EE"/>
<path d="M44.6675 44.3141C44.6675 41.5971 44.6621 38.9816 44.6675 36.3687C44.6728 34.357 45.1358 33.633 46.3961 33.6437C47.6298 33.6544 48.1783 34.4959 48.181 36.3848C48.181 38.9976 48.181 41.6131 48.181 44.3782C50.8757 44.3782 53.4473 44.3782 56.0163 44.3782C56.4605 44.3782 56.9208 44.3355 57.3489 44.4263C58.3149 44.632 58.9813 45.1664 58.9037 46.2591C58.8261 47.3224 58.1999 47.854 57.1482 47.8594C54.6515 47.8754 52.1575 47.8727 49.6608 47.8781C49.2246 47.8781 48.7885 47.8781 48.181 47.8781C48.181 50.4722 48.181 52.9461 48.181 55.4227C48.181 55.9116 48.2185 56.4059 48.165 56.8894C48.0526 57.942 47.4826 58.6393 46.3881 58.7061C45.3926 58.7676 44.6889 57.9554 44.6755 56.7478C44.6541 54.3888 44.6755 52.0324 44.6755 49.6734C44.6755 49.1471 44.6755 48.6208 44.6755 47.87C43.102 47.87 41.649 47.87 40.1959 47.87C38.7241 47.87 37.255 47.8994 35.7832 47.87C34.5496 47.846 33.8164 47.1808 33.8083 46.1629C33.8003 45.1877 34.5763 44.413 35.7618 44.3943C38.3896 44.3489 41.0201 44.3782 43.6506 44.3729C43.9155 44.3729 44.1804 44.3408 44.6621 44.3115L44.6675 44.3141Z" fill="#3992EE"/>
<path d="M18.1806 22.4496C15.8498 22.4069 14.0302 20.5715 14.0409 18.2765C14.0516 15.8694 15.9863 14.0527 18.4669 14.1195C20.6372 14.1783 22.4943 16.1045 22.4943 18.2952C22.4943 20.5902 20.5167 22.4923 18.1833 22.4496H18.1806Z" fill="#3992EE"/>
</g>
<defs>
<clipPath id="clip0_611_3">
<rect width="59" height="59" fill="white"/>
</clipPath>
</defs>
</svg>
