<svg width="11" height="21" viewBox="0 0 11 21" fill="none" xmlns="http://www.w3.org/2000/svg">
<path d="M3.31131 10.4602C4.58171 9.08782 5.83806 7.73695 7.08783 6.37891C8.25042 5.11605 9.41113 3.85114 10.5634 2.57702C11.0172 2.07556 11.1156 1.42776 10.8662 0.841357C10.6234 0.270306 10.0937 -0.089928 9.49082 0.0195745C9.18799 0.0748375 8.8514 0.242674 8.63576 0.476006C5.90462 3.42746 3.18943 6.39528 0.479853 9.37027C-0.179258 10.0938 -0.152068 10.9371 0.516419 11.6678C3.19693 14.6008 5.87931 17.5328 8.56451 20.4607C9.19455 21.1474 10.0402 21.1781 10.6047 20.5539C11.1625 19.9368 11.1222 19.0116 10.4959 18.327C8.22323 15.8401 5.94775 13.3574 3.67321 10.8726C3.56445 10.7539 3.46038 10.6301 3.31131 10.4602Z" fill="black"/>
</svg>
