<?xml version="1.0" standalone="no"?>
<!DOCTYPE svg PUBLIC "-//W3C//DTD SVG 20010904//EN"
 "http://www.w3.org/TR/2001/REC-SVG-20010904/DTD/svg10.dtd">
<svg version="1.0" xmlns="http://www.w3.org/2000/svg"
 width="40.000000pt" height="40.000000pt" viewBox="0 0 40.000000 40.000000"
 preserveAspectRatio="xMidYMid meet">

<g transform="translate(0.000000,40.000000) scale(0.100000,-0.100000)"
fill="#000000" stroke="none">
<path d="M4 387 c-2 -7 -3 -96 -2 -197 l3 -185 143 -3 c122 -2 142 0 142 13 0
8 8 16 18 17 9 1 -21 4 -68 7 l-85 6 0 40 c0 34 3 40 23 43 12 2 22 10 22 19
0 15 2 15 18 0 12 -11 41 -17 92 -19 l75 -3 0 -40 c0 -33 -4 -40 -25 -47 -23
-6 -23 -7 5 -5 29 2 30 4 30 52 l0 50 -52 3 -52 3 -4 52 -3 52 -2 -52 c-2 -49
-4 -53 -26 -53 -13 0 -29 7 -36 15 -16 19 -30 19 -30 1 0 -8 -10 -16 -22 -18
-20 -3 -23 -9 -23 -53 l0 -50 68 -3 c37 -2 67 -7 67 -12 0 -6 -56 -10 -135
-10 l-135 0 0 170 0 170 134 0 135 0 4 -47 c3 -37 4 -31 5 25 l2 72 -140 0
c-105 0 -142 -3 -146 -13z m36 -12 c0 -8 -7 -15 -15 -15 -8 0 -15 7 -15 15 0
8 7 15 15 15 8 0 15 -7 15 -15z m240 0 c0 -13 -17 -15 -112 -13 -78 2 -113 7
-116 16 -3 9 24 12 112 12 98 0 116 -2 116 -15z"/>
<path d="M24 326 c-3 -7 -4 -40 -2 -72 l3 -59 123 -3 122 -3 0 76 0 75 -120 0
c-93 0 -122 -3 -126 -14z m236 -30 c0 -33 -1 -34 -25 -23 -14 7 -25 15 -25 20
0 11 -55 8 -66 -3 -8 -8 -15 -6 -24 5 -17 20 -33 19 -55 -5 -10 -11 -22 -20
-27 -20 -10 0 -11 44 -1 53 3 4 55 7 115 7 l108 0 0 -34z m-130 -31 c28 -29
31 -36 20 -50 -18 -22 -113 -17 -118 6 -3 16 43 79 57 79 4 0 22 -16 41 -35z
m74 16 c3 -4 -3 -16 -13 -25 -16 -14 -20 -15 -30 -2 -7 8 -10 20 -6 26 8 12
42 13 49 1z m56 -63 c0 -15 -8 -18 -52 -18 l-52 0 34 35 c32 33 35 34 52 18
10 -9 18 -24 18 -35z"/>
<path d="M218 93 c28 -2 76 -2 105 0 28 2 5 3 -53 3 -58 0 -81 -1 -52 -3z"/>
<path d="M218 73 c28 -2 76 -2 105 0 28 2 5 3 -53 3 -58 0 -81 -1 -52 -3z"/>
</g>
</svg>
