<svg width="13" height="7" viewBox="0 0 13 7" fill="none" xmlns="http://www.w3.org/2000/svg">
<path d="M6.52465 4.8928C7.37421 4.08436 8.21046 3.28487 9.05115 2.48956C9.83292 1.74973 10.616 1.0111 11.4047 0.277836C11.7151 -0.0109355 12.1161 -0.0735822 12.4792 0.0851226C12.8327 0.239651 13.0557 0.576749 12.9879 0.960385C12.9537 1.1531 12.8498 1.36729 12.7053 1.50452C10.8782 3.24251 9.04102 4.97037 7.19936 6.69464C6.75145 7.11407 6.22943 7.09677 5.77709 6.67137C3.9614 4.96559 2.14635 3.25862 0.333834 1.54986C-0.0912616 1.14892 -0.110267 0.610758 0.276183 0.251584C0.6582 -0.103414 1.23091 -0.0777586 1.65474 0.320793C3.1942 1.76704 4.73114 3.21507 6.26934 4.6625C6.34283 4.73171 6.41949 4.79794 6.52465 4.8928Z" fill="#243D4C"/>
</svg>
