<svg width="18" height="16" viewBox="0 0 18 16" fill="none" xmlns="http://www.w3.org/2000/svg">
<path d="M6.2537 0.862707L6.25381 0.862731C7.13593 1.04804 7.83133 1.51545 8.35777 2.23545L8.8599 2.92218L9.47828 2.33793C9.62836 2.19613 9.75082 2.07281 9.86053 1.96234C10.0578 1.76372 10.2138 1.60662 10.415 1.4582C11.3178 0.794788 12.3569 0.632484 13.5272 0.826069L13.5272 0.826071C15.1647 1.09691 16.2971 1.92513 16.8924 3.45238C17.0049 3.74128 17.0639 4.01327 17.1348 4.3402C17.1683 4.49438 17.2044 4.66078 17.25 4.84693V5.88008C17.2272 5.94145 17.2029 6.02593 17.1949 6.12472L17.1947 6.12756C17.0738 7.68264 16.3911 8.98837 15.2997 10.1577L15.2996 10.1579C13.4654 12.1242 11.2871 13.6866 8.99457 15.203C6.95658 13.8574 5.01476 12.4399 3.28646 10.7667L2.7648 11.3056L3.28646 10.7667C2.13161 9.64877 1.26705 8.45703 0.933357 6.97189L0.933234 6.97134C0.882117 6.74462 0.845631 6.52907 0.80559 6.29252C0.788223 6.18993 0.770188 6.08338 0.75 5.97026V4.88998C0.770525 4.83318 0.803143 4.73377 0.816071 4.61337C1.13164 1.71756 3.78004 0.342665 6.2537 0.862707ZM13.6496 0.086411L13.6496 0.0863394L13.6496 0.086411Z" fill="white" stroke="#C0264A" stroke-width="1.5"/>
</svg>
