<svg width="30" height="30" viewBox="0 0 30 30" fill="none" xmlns="http://www.w3.org/2000/svg">
<path d="M14.9975 29C22.7469 29.0024 28.9892 22.777 29 15.0319V15.0317C29.0095 7.24999 22.7812 1.00239 15.0036 1C7.25303 0.997612 1.01316 7.22084 1.00002 14.9678C0.986886 22.7446 7.22227 28.9988 14.9975 29ZM14.9975 29L14.9978 28L14.9975 29ZM11.4023 12.7969L11.4036 12.7971C11.4901 12.8042 11.5313 12.7933 11.5414 12.7901C11.5427 12.7896 11.5437 12.7893 11.5444 12.789C11.5522 12.7805 11.6332 12.684 11.6595 12.3701L11.6596 12.3691C11.7879 10.857 12.8239 9.65077 14.3188 9.35026L11.4023 12.7969ZM11.4023 12.7969C11.3583 12.7934 11.3374 12.7791 11.3185 12.7557M11.4023 12.7969L11.3185 12.7557M17.9693 11.0509L17.9698 11.0517C18.6858 12.3998 18.4026 14.0426 17.288 15.0901L17.9693 11.0509ZM17.9693 11.0509C17.2621 9.72231 15.7915 9.05381 14.3194 9.35014L17.9693 11.0509ZM14.9876 16.0062L14.9875 16.0062C14.8725 16.0114 14.8068 16.0997 14.8093 16.1806L14.8093 16.1809C14.8107 16.2275 14.8276 16.2609 14.8548 16.2868C14.8827 16.3134 14.9349 16.344 15.021 16.3457C15.2791 16.3501 15.4598 16.347 15.6132 16.3214C17.4733 16.0113 18.8729 14.2299 18.7397 12.5006L18.7397 12.5004C18.5771 10.3866 16.9664 8.89408 14.9776 8.90016M14.9876 16.0062L11.2582 12.5089C11.3276 10.5206 12.9939 8.90627 14.9776 8.90016M14.9876 16.0062C15.7949 15.9696 16.6045 15.7328 17.2877 15.0904L14.9876 16.0062ZM14.9776 8.90016L14.9745 7.90017L14.9776 8.90016ZM11.3185 12.7557C11.2955 12.7271 11.2535 12.6516 11.2582 12.5095L11.3185 12.7557ZM14.8609 20.8081C14.8921 20.7779 14.9319 20.7586 14.9757 20.7538L14.9968 20.7537C15.1163 20.7533 15.1861 20.8421 15.1886 20.9196L16.1881 20.8863L15.1886 20.919C15.1893 20.9413 15.18 20.9871 15.1327 21.0358C15.0858 21.0839 15.0345 21.1005 14.9996 21.101C14.9644 21.1009 14.914 21.0851 14.8676 21.0384C14.8209 20.9915 14.8092 20.9449 14.8095 20.9178C14.8102 20.8821 14.8249 20.843 14.8609 20.8081Z" fill="#1C2B48" stroke="white" stroke-width="2"/>
</svg>
