<?xml version="1.0" standalone="no"?>
<!DOCTYPE svg PUBLIC "-//W3C//DTD SVG 20010904//EN"
 "http://www.w3.org/TR/2001/REC-SVG-20010904/DTD/svg10.dtd">
<svg version="1.0" xmlns="http://www.w3.org/2000/svg"
 width="40.000000pt" height="40.000000pt" viewBox="0 0 40.000000 40.000000"
 preserveAspectRatio="xMidYMid meet">

<g transform="translate(0.000000,40.000000) scale(0.100000,-0.100000)"
fill="#000000" stroke="none">
<path d="M15 377 c-3 -7 -4 -91 -3 -187 l3 -175 185 0 185 0 0 185 0 185 -183
3 c-143 2 -184 0 -187 -11z m363 -14 c3 -10 -37 -13 -177 -13 -166 0 -194 4
-174 24 4 3 83 5 177 4 125 -2 170 -6 174 -15z m-3 -183 l0 -155 -175 0 -175
0 -3 145 c-1 79 0 150 2 157 4 11 43 13 178 11 l173 -3 0 -155z"/>
<path d="M44 309 c-10 -17 13 -36 27 -22 12 12 4 33 -11 33 -5 0 -12 -5 -16
-11z"/>
<path d="M138 313 c12 -2 30 -2 40 0 9 3 -1 5 -23 4 -22 0 -30 -2 -17 -4z"/>
<path d="M103 283 c9 -2 23 -2 30 0 6 3 -1 5 -18 5 -16 0 -22 -2 -12 -5z"/>
<path d="M50 175 l0 -85 150 0 150 0 0 85 0 85 -150 0 -150 0 0 -85z m290 34
l0 -40 -28 20 c-16 11 -37 20 -48 19 -10 0 -45 3 -77 7 -51 7 -62 5 -87 -14
-38 -28 -40 -27 -40 14 l0 35 140 0 140 0 0 -41z m-200 -39 l0 -40 49 0 c28 0
53 -5 56 -10 4 -6 -28 -10 -89 -10 -93 0 -96 1 -96 23 0 20 53 76 73 77 4 0 7
-18 7 -40z m53 25 c1 -5 -6 -11 -15 -13 -11 -2 -18 3 -18 13 0 17 30 18 33 0z
m145 -64 c3 -20 0 -22 -35 -19 -33 3 -38 6 -41 31 -6 54 4 62 41 34 17 -13 33
-34 35 -46z m-101 53 c-3 -3 -12 -4 -19 -1 -8 3 -5 6 6 6 11 1 17 -2 13 -5z
m-53 -29 c3 -9 0 -15 -9 -15 -8 0 -15 7 -15 15 0 8 4 15 9 15 5 0 11 -7 15
-15z m56 0 c0 -8 -7 -15 -15 -15 -9 0 -12 6 -9 15 4 8 10 15 15 15 5 0 9 -7 9
-15z"/>
<path d="M50 73 c1 -19 19 -35 34 -30 26 10 19 37 -9 37 -14 0 -25 -3 -25 -7z"/>
<path d="M110 60 c0 -15 5 -20 18 -18 22 4 22 32 0 36 -13 2 -18 -3 -18 -18z
m25 0 c3 -5 1 -10 -4 -10 -6 0 -11 5 -11 10 0 6 2 10 4 10 3 0 8 -4 11 -10z"/>
<path d="M160 60 c0 -22 8 -25 30 -10 13 9 13 11 0 20 -22 15 -30 12 -30 -10z"/>
</g>
</svg>
