<svg width="30" height="30" viewBox="0 0 30 30" fill="none" xmlns="http://www.w3.org/2000/svg">
<path opacity="0.5" d="M3.21612 7.43906C3.21612 6.07504 3.21344 4.71637 3.21612 3.35904C3.22415 1.3699 4.58893 0.00587434 6.58661 0.00453575C11.4262 0.000519983 16.2672 -0.0101887 21.1069 0.0272918C21.5417 0.0299689 22.0716 0.253513 22.39 0.552019C23.708 1.7862 24.9871 3.06589 26.2221 4.38306C26.5218 4.70298 26.7466 5.22771 26.7547 5.66409C26.8028 8.40552 26.7787 11.1483 26.7787 13.9205C26.9714 13.9767 27.1387 14.0249 27.3059 14.0744C28.8754 14.5363 29.9793 15.9645 29.9873 17.599C30.0007 20.3431 30.0074 23.0858 29.9873 25.8299C29.9699 28.064 28.0726 29.9836 25.8421 29.9889C18.2809 30.005 10.7198 30.0023 3.15858 29.9889C1.42584 29.9863 0.0128868 28.562 0.00887271 26.8258C-0.00450754 21.4487 -0.000493464 16.073 0.00619666 10.6972C0.00887271 9.22206 0.984293 7.99457 2.40795 7.61709C2.6595 7.55016 2.91774 7.50331 3.21612 7.43906ZM20.3549 2.14226C18.8255 2.14226 17.3805 2.14226 15.9354 2.14226C12.8365 2.14226 9.73632 2.13959 6.63745 2.1436C5.89752 2.1436 5.39844 2.45951 5.37971 3.06321C5.33555 4.52495 5.36499 5.98937 5.36499 7.50197C6.25611 7.50197 7.07766 7.50867 7.89787 7.50063C8.81174 7.49126 9.59181 7.80449 10.2568 8.42828C10.8736 9.00789 11.5132 9.56608 12.1193 10.1577C12.5274 10.5553 12.973 10.7333 13.5537 10.7253C15.7614 10.6999 17.9678 10.7119 20.1756 10.7159C22.2094 10.7199 23.5608 12.0759 23.5635 14.1173C23.5661 17.7301 23.5635 21.3416 23.5635 24.9545V25.6787C24.4131 25.5221 24.6379 25.2276 24.6379 24.3187C24.6379 18.5654 24.6379 12.8122 24.6379 7.0589C24.6379 6.86481 24.6178 6.67205 24.6045 6.42575C23.6103 6.42575 22.6563 6.42843 21.7023 6.42575C20.7389 6.42307 20.3602 6.05228 20.3562 5.1059C20.3522 4.14881 20.3562 3.19306 20.3562 2.14092L20.3549 2.14226ZM10.7104 19.896C10.7104 20.9494 10.7104 21.9708 10.7104 22.9935C10.7104 24.1299 11.0569 24.652 11.8009 24.6399C12.5261 24.6279 12.8566 24.1232 12.8566 23.0256C12.8566 21.9882 12.8566 20.9508 12.8566 19.7942C13.0145 19.9201 13.076 19.9723 13.1403 20.0191C13.7611 20.4742 14.3338 20.4568 14.7405 19.9736C15.1299 19.5105 15.0831 18.9402 14.5813 18.4235C13.9457 17.7676 13.2915 17.1291 12.6452 16.4839C12.1956 16.0341 11.6484 15.8601 11.156 16.2978C10.325 17.0367 9.52491 17.8212 8.8104 18.6712C8.60702 18.9121 8.60836 19.5172 8.77026 19.8183C8.91745 20.0914 9.39914 20.2842 9.75237 20.3176C10.0307 20.3444 10.3358 20.074 10.7091 19.8973L10.7104 19.896Z" fill="#1C2B48"/>
</svg>
