<svg width="260" height="67" viewBox="0 0 260 67" fill="none" xmlns="http://www.w3.org/2000/svg">
<path d="M46 53V36C46 30 50.6667 27.5 53 27H92C98.8 28.2 100.5 33.5 100.5 36V53C100.9 60.6 95 62.5 92 62.5H53C47.4 61.7 46 55.8333 46 53Z" stroke="black" stroke-width="8"/>
<rect x="57.8999" y="35" width="3.85" height="10" rx="1.925" fill="black"/>
<rect x="83.3999" y="35" width="3.85" height="10" rx="1.925" fill="black"/>
<path d="M76.9999 51.5002C72.9999 55.9002 68.9999 53.3335 67.4999 51.5002C67.3332 51.3334 67.0999 50.8 67.4999 50C67.8999 49.2 68.9999 50 69.4999 50.5C71.4999 52.5 74 50.9999 75 50.5C77.177 49.4118 77.4999 50.9501 76.9999 51.5002Z" fill="black"/>
<rect x="71.3" y="15" width="4.1" height="8" fill="black"/>
<path d="M81.5 8C81.5 12.4183 77.9183 16 73.5 16C69.0817 16 65.5 12.4183 65.5 8C65.5 3.58172 69.0817 0 73.5 0C77.9183 0 81.5 3.58172 81.5 8ZM70.2455 8C70.2455 9.79741 71.7026 11.2545 73.5 11.2545C75.2974 11.2545 76.7545 9.79741 76.7545 8C76.7545 6.20259 75.2974 4.74549 73.5 4.74549C71.7026 4.74549 70.2455 6.20259 70.2455 8Z" fill="black"/>
<path d="M23.5 35.5H0V64H9.5V45.5H23.5C27.6667 45.3333 36 42.5 36 32.5C36 22.5 27.6667 20 23.5 20H0V29.5H23.5C24.5 29.5 26.5 30.1 26.5 32.5C26.5 34.9 24.5 35.5 23.5 35.5Z" fill="black"/>
<path d="M182.5 64.4V35.9H172.5V64.4H182.5Z" fill="black"/>
<path d="M197.7 20H157.7V30L197.7 30V20Z" fill="black"/>
<path d="M155 33.0001H145C145 30.2001 143.333 29.5 142.5 29.5H127.5C126.5 29.5 124.4 29.8 124 33.0001C123.6 36.2001 126.167 37 127.5 37H141C145.5 36.8333 154.5 39.3 154.5 50.5C154.5 61.7 145.5 64.5 141 64.5H126.5C115.5 62.5 114 54.5 114.5 51H123.5C123.5 53.8 125.5 54.8333 126.5 55H141C142.167 54.8333 144.6 53.7 145 50.5C145.4 47.3 142.5 46.5 141 46.5H125.5C121.667 46 114.1 42.6 114.5 33.0001C114.9 23.4001 122 20.3334 125.5 20.0001C128.833 19.6667 137.4 19.3001 145 20.5001C152.6 21.7001 154.833 29.3334 155 33.0001Z" fill="black"/>
<path d="M249 64V20H259.5V64H249Z" fill="black"/>
<path d="M204 64.5H191.5L208 34.5L214.5 46L204 64.5Z" fill="black"/>
<path d="M231 64.5L211 28.5L216 19.5H218.5L243.5 64.5H231Z" fill="black"/>
</svg>
