<svg width="260" height="67" viewBox="0 0 260 67" fill="none" xmlns="http://www.w3.org/2000/svg">
<path d="M46.5 53V36C46.5 30 51.1667 27.5 53.5 27H92.5C99.3 28.2 101 33.5 101 36V53C101.4 60.6 95.5 62.5 92.5 62.5H53.5C47.9 61.7 46.5 55.8333 46.5 53Z" stroke="#3992EE" stroke-width="8"/>
<rect x="58.3999" y="35" width="3.85" height="10" rx="1.925" fill="#3992EE"/>
<rect x="83.8999" y="35" width="3.85" height="10" rx="1.925" fill="#3992EE"/>
<path d="M77.4999 51.5002C73.4999 55.9002 69.4999 53.3335 67.9999 51.5002C67.8332 51.3334 67.5999 50.8 67.9999 50C68.3999 49.2 69.4999 50 69.9999 50.5C71.9999 52.5 74.5 50.9999 75.5 50.5C77.677 49.4118 77.9999 50.9501 77.4999 51.5002Z" fill="#3992EE"/>
<rect x="71.8" y="15" width="4.1" height="8" fill="#3992EE"/>
<path d="M82 8C82 12.4183 78.4183 16 74 16C69.5817 16 66 12.4183 66 8C66 3.58172 69.5817 0 74 0C78.4183 0 82 3.58172 82 8ZM70.7455 8C70.7455 9.79741 72.2026 11.2545 74 11.2545C75.7974 11.2545 77.2545 9.79741 77.2545 8C77.2545 6.20259 75.7974 4.74549 74 4.74549C72.2026 4.74549 70.7455 6.20259 70.7455 8Z" fill="#3992EE"/>
<path d="M24 35.5H0.5V64H10V45.5H24C28.1667 45.3333 36.5 42.5 36.5 32.5C36.5 22.5 28.1667 20 24 20H0.5V29.5H24C25 29.5 27 30.1 27 32.5C27 34.9 25 35.5 24 35.5Z" fill="#3992EE"/>
<path d="M183 64.4V35.9H173V64.4H183Z" fill="#3992EE"/>
<path d="M198.2 20H158.2V30L198.2 30V20Z" fill="#3992EE"/>
<path d="M155.5 33.0001H145.5C145.5 30.2001 143.833 29.5 143 29.5H128C127 29.5 124.9 29.8 124.5 33.0001C124.1 36.2001 126.667 37 128 37H141.5C146 36.8333 155 39.3 155 50.5C155 61.7 146 64.5 141.5 64.5H127C116 62.5 114.5 54.5 115 51H124C124 53.8 126 54.8333 127 55H141.5C142.667 54.8333 145.1 53.7 145.5 50.5C145.9 47.3 143 46.5 141.5 46.5H126C122.167 46 114.6 42.6 115 33.0001C115.4 23.4001 122.5 20.3334 126 20.0001C129.333 19.6667 137.9 19.3001 145.5 20.5001C153.1 21.7001 155.333 29.3334 155.5 33.0001Z" fill="#3992EE"/>
<path d="M249.5 64V20H260V64H249.5Z" fill="#3992EE"/>
<path d="M204.5 64.5H192L208.5 34.5L215 46L204.5 64.5Z" fill="#3992EE"/>
<path d="M231.5 64.5L211.5 28.5L216.5 19.5H219L244 64.5H231.5Z" fill="#3992EE"/>
</svg>
